<svg xmlns="http://www.w3.org/2000/svg" xmlns:xlink="http://www.w3.org/1999/xlink" enable-background="new 0 0 262 262" viewBox="0 0 262 262" id="einstein">
  <path fill="#7DEDF9" d="M246.22505,143.78044c0,63.62079-51.59196,115.2195-115.21936,115.2195
		c-63.63507,0-115.23074-51.59402-115.23074-115.2195c0-63.63917,51.59122-115.2306,115.23074-115.2306
		C194.63376,28.54984,246.22505,80.14127,246.22505,143.78044z"></path>
  <path fill="#CFB7FF" d="M232.48106,199.68451v0.02261c-1.82961,3.23045-3.80603,6.3699-5.92929,9.40788
			c-46.67632,66.88493-144.97516,66.11797-191.10355,0c-2.12325-3.03798-4.09968-6.18901-5.92928-9.4305
			c0-2.30399,0.70021-4.49493,1.93121-6.32411c1.23106-1.82974,2.9929-3.30931,5.12746-4.16794l94.41675-38.30872l94.41679,38.30872
			C229.68021,190.92073,232.48106,195.07652,232.48106,199.68451z"></path>
  <path fill="#FFF" d="M232.48106,199.68933v0.02261c-0.29359,0.51947-0.58723,1.03894-0.9035,1.54739
			c-1.14069-2.722-3.33171-4.93556-6.16641-6.08755l-94.41679-38.30872l-94.41675,38.30872
			c-2.13456,0.85808-3.8964,2.33763-5.12746,4.16737c-0.40656,0.59833-0.74537,1.23085-1.02771,1.9086
			c-0.30496-0.51947-0.60984-1.03896-0.9035-1.55843c0-2.30399,0.70021-4.49493,1.93121-6.32468
			c1.23106-1.82974,2.9929-3.3093,5.12746-4.16737l94.41675-38.30872l94.41679,38.30872
			C229.68021,190.925,232.48106,195.08134,232.48106,199.68933z" opacity=".4"></path>
  <path fill="#FFBBBA" d="M119.03467,159.86111c1.64063-1.35149,3.59436-2.30058,5.62622-2.96011
			c2.03552-0.6682,4.1908-1.01257,6.3512-1.02222c1.08093-0.04285,2.16089,0.09909,3.23145,0.21944
			c1.05676,0.23752,2.12988,0.37801,3.13708,0.783c2.05969,0.62611,3.93726,1.74077,5.58472,3.04715
			c-2.0498-0.5759-3.97156-1.22496-5.97388-1.53575c-0.98511-0.20721-1.98535-0.29707-2.97546-0.41437
			c-0.99878-0.03439-1.9906-0.14917-2.9895-0.10013c-1.99231,0.01239-3.99536,0.17593-5.9895,0.53142
			C123.03992,158.75998,121.05615,159.24643,119.03467,159.86111z"></path>
  <path fill="#D80F49" d="M89.91979,152.55638c0,0-11.02652,13.68407-10.855,19.19415
			c0.41595,13.36227,15.79993,44.69524,29.16811,44.81958c10.20068,0.09488,22.88927-33.77997,22.88927-33.77997
			C110.55212,178.89923,100.86031,167.15056,89.91979,152.55638z"></path>
  <path fill="#D80F49" d="M173.35562,152.55638c0,0,9.79123,13.95421,9.57959,19.34731
			c-0.50996,12.99507-13.67676,44.00505-26.66501,44.66643c-10.51463,0.53542-25.14804-33.77997-25.14804-33.77997
			C151.6922,178.89923,162.41512,167.15056,173.35562,152.55638z"></path>
  <path fill="#081832" d="M158.534,178.58936v22.76878c0,2.15497-2.18263,3.62381-4.17897,2.81233L131,194.67694l-23.35503,9.49353
			c-1.99633,0.81148-4.17897-0.65736-4.17897-2.81233v-22.76878c0-2.15497,2.18264-3.62383,4.17897-2.81233L131,185.27055
			l23.35503-9.49353C156.35136,174.96553,158.534,176.43439,158.534,178.58936z"></path>
  <path fill="#E0EEFE" d="M159.34389,4.68439c6.9212,1.38907,13.20055,4.96356,19.07729,8.87463
			c16.50247,10.98266,30.92351,25.08127,42.27644,41.33121c1.69418,2.42494,3.38336,5.48792,2.15782,8.18024
			c-0.46172,1.01432-1.30484,1.84736-1.60345,2.92107c-0.39542,1.42178,0.24979,2.91347,0.98174,4.19489
			c3.28975,5.75938,8.82324,10.83743,8.89061,17.46981c0.03905,3.84425-1.84619,7.49073-1.96611,11.33331
			c-0.17081,5.47332,3.16119,11.34979,0.46526,16.11617c-2.55582,4.51862-9.45409,5.57557-11.18025,10.47153
			c-2.20372,6.25041,5.99733,12.18199,4.90836,18.71944c-0.88927,5.33861-7.09404,7.57961-11.4115,10.84323
			c-2.61427,1.97615-4.69252,4.56995-7.15666,6.73041c-4.97566,4.36244-11.55412,6.85396-18.1713,6.88219
			c-1.51703,0.00647-3.10474-0.13367-4.38879-0.9415c-1.5894-0.99994-2.4303-2.83095-3.74498-4.17172
			c-3.41649-3.48425-9.0598-2.98889-13.882-2.24133c-10.58401,1.64075-21.16803,3.28151-31.75204,4.92227
			c-3.92438,0.60837-7.9446,1.21559-11.84126,0.44945c-8.97789-1.76521-15.77899-10.47751-24.9201-10.87566
			c-10.21613-0.44498-19.98547,9.76698-29.42998,5.84669c-4.44831-1.84644-7.15617-6.4001-8.79178-10.93016
			c-0.48184-1.33453-0.87991-2.89182-0.15055-4.10884c0.48544-0.81003,1.38209-1.2935,1.92456-2.06648
			c1.42791-2.03467-0.25251-4.8992-2.36118-6.21538c-2.10866-1.31616-4.69592-1.92238-6.43349-3.69989
			c-4.72248-4.83105,0.13832-13.98013-3.99534-19.3237c-1.16386-1.50452-2.90508-2.47162-4.11106-3.94258
			c-1.39819-1.7054-1.95683-3.92796-2.47692-6.07105c-1.37511-5.66634-2.75021-11.33267-4.12532-16.999
			c-1.11421-4.59127-1.53837-10.74109,2.75069-12.7223c1.39183-0.64292,3.00629-0.63966,4.42347-1.22458
			c2.73467-1.12868,4.17791-4.24898,4.34593-7.20264c0.16801-2.95367-0.66746-5.85771-1.20464-8.76697
			c-1.13589-6.15171-0.87412-12.78273,2.09963-18.28642c2.54533-4.71078,6.82428-8.19794,10.99429-11.55667
			c5.27103-4.24555,10.54205-8.4911,15.81307-12.73665c1.10473-0.8898,2.25637-1.80358,3.63214-2.14917
			c2.39866-0.60253,4.91681,0.64359,7.36873,0.32001c4.12548-0.54444,6.35111-5.03711,9.72709-7.46996
			c2.30296-1.65958,5.15853-2.34066,7.95981-2.79965c10.07677-1.65108,19.9595-0.59789,29.73466,2.11648
			C142.53023,8.33579,150.26804,2.8629,159.34389,4.68439z"></path>
  <path fill="#162B4E" d="M48.59922,126.57668c0.07961,0.90071,0.09074,1.81283,0.06847,2.74776
			C48.58752,128.43517,48.57639,127.51163,48.59922,126.57668z"></path>
  <path fill="#162B4E" d="M220.69571,61.01717c-11.356-16.24736-25.76784-30.3512-42.27742-41.33099
			c-5.87173-3.91076-12.15434-7.4909-19.07494-8.88193c-9.07568-1.81282-16.81744,3.65996-25.56242,1.2314
			c-9.78271-2.72501-19.65672-3.77394-29.7356-2.12069c-2.80476,0.45602-5.65517,1.14017-7.95834,2.79342
			c-3.38654,2.4399-5.60952,6.93215-9.73705,7.47948c-2.45125,0.31921-4.95983-0.92353-7.36543-0.31928
			c-1.36842,0.34204-2.51972,1.25415-3.62592,2.14352c-5.27884,4.24138-10.54653,8.49425-15.81367,12.73563
			c-4.17318,3.3635-8.4488,6.85241-11.00304,11.56129c-1.44803,2.69077-2.24582,5.64383-2.56537,8.67664
			c-0.46709-5.0965,0.14809-10.3299,2.56537-14.79932c2.55424-4.7203,6.82986-8.2092,11.00304-11.56129
			c5.26714-4.24138,10.53484-8.49425,15.81367-12.73563c1.1062-0.88936,2.2575-1.80148,3.62592-2.15493
			c2.40559-0.60425,4.91418,0.6499,7.36543,0.31928c4.12753-0.53591,6.35052-5.02817,9.73705-7.46814
			c2.30316-1.65318,5.15357-2.33733,7.95834-2.79335c10.07888-1.65325,19.9529-0.60432,29.7356,2.10928
			c8.74498,2.42856,16.48674-3.04422,25.56242-1.21999c6.92059,1.39104,13.2032,4.9711,19.07494,8.88193
			c16.50958,10.97973,30.92142,25.07223,42.27742,41.331c1.69856,2.41714,3.38599,5.48419,2.15453,8.17496
			c-0.12527,0.28504-0.28505,0.54726-0.44427,0.80947C221.92719,62.87565,221.31145,61.90647,220.69571,61.01717z" opacity=".1"></path>
  <path fill="#FFBBBA" d="M197.82935,123.90896c-3.00829,10.42785-11.10837,17.23783-18.10255,15.22012
				c-6.99417-2.01773-10.22978-12.0979-7.2215-22.52575c3.00813-10.42731,11.11899-17.24656,18.11317-15.22884
				C197.61264,103.39221,200.83748,113.48165,197.82935,123.90896z"></path>
  <path fill="#FF9E9D" d="M176.98206,129.28145c0.51964-2.1414,1.56142-4.07224,2.7888-5.68435
				c1.23549-1.61477,2.71776-2.91589,4.27251-3.709c1.54753-0.78964,3.16724-1.17344,4.62537-0.90369
				c0.7439,0.04927,1.41722,0.39054,2.07042,0.69881c0.32913,0.14655,0.61642,0.42693,0.90605,0.67249
				c0.28662,0.25578,0.56403,0.51945,0.81546,0.83498c-0.79321,0.30322-1.48964,0.39191-2.18567,0.58281
				c-0.70061,0.2334-1.35057,0.30054-2.00525,0.56716c-1.29259,0.34446-2.51768,0.91644-3.72707,1.51679
				c-1.21211,0.61289-2.41382,1.37969-3.64763,2.2959C179.65057,127.06094,178.40283,128.09685,176.98206,129.28145z"></path>
  <path fill="#FFD6D6" d="M197.82794,123.90821c-0.26329,0.91269-0.56274,1.7922-0.89835,2.63853
				c1.77942-9.4175-1.46376-17.98875-7.85213-19.8317s-13.70567,3.68175-17.21584,12.59995
				c0.16676-0.89504,0.38179-1.79891,0.64508-2.71159c3.00783-10.42625,11.11752-17.24471,18.11095-15.22721
				C197.61107,103.39368,200.83577,113.48196,197.82794,123.90821z"></path>
  <path fill="#FFBBBA" d="M73.94303,123.90896c3.00829,10.42785,11.10838,17.23783,18.10255,15.22012
				c6.99418-2.01773,10.2298-12.0979,7.2215-22.52575c-3.00813-10.42731-11.11899-17.24656-18.11317-15.22884
				S70.93491,113.48165,73.94303,123.90896z"></path>
  <path fill="#FF9E9D" d="M94.79033,129.28145c-0.51964-2.1414-1.56142-4.07224-2.7888-5.68435
				c-1.23549-1.61477-2.71777-2.91589-4.27252-3.709c-1.54753-0.78964-3.16722-1.17344-4.62536-0.90369
				c-0.7439,0.04927-1.41722,0.39054-2.07043,0.69881c-0.32913,0.14655-0.61642,0.42693-0.90605,0.67249
				c-0.28661,0.25578-0.56403,0.51945-0.81544,0.83498c0.79321,0.30322,1.48962,0.39191,2.18566,0.58281
				c0.7006,0.2334,1.35056,0.30054,2.00526,0.56716c1.29257,0.34446,2.51768,0.91644,3.72706,1.51679
				c1.21211,0.61289,2.41381,1.37969,3.64764,2.2959C92.12181,127.06094,93.36956,128.09685,94.79033,129.28145z"></path>
  <path fill="#FFD6D6" d="M73.94444,123.90821c0.2633,0.91269,0.56275,1.7922,0.89835,2.63853
				c-1.77943-9.4175,1.46376-17.98875,7.85213-19.8317s13.70567,3.68175,17.21583,12.59995
				c-0.16676-0.89504-0.38178-1.79891-0.64508-2.71159c-3.00783-10.42625-11.11752-17.24471-18.11093-15.22721
				C74.16131,103.39368,70.93661,113.48196,73.94444,123.90821z"></path>
  <path fill="#FFD6D6" d="M107.24976,45.42108c7.52095,0.93687,24.67692,2.24364,47.98304-1.04989
			c0.92422-0.13061,1.86803-0.08686,2.76961,0.15481c5.00456,1.34145,20.72395,7.49913,21.23085,31.99907
			c0,0-2.05809,17.27621,5.17978,29.94249l-7.68732,42.6528c0,0-1.66615,22.46077-23.59636,25.99789
			c0,0-18.71776,21.90889-42.24957,0.71425c0,0-21.15808-5.14723-21.38506-39.8748l-2.49675-24.51357
			c0,0-2.0428-9.53306,3.17769-36.77037c0,0-8.31328-5.57121,9.79825-26.48359
			C101.77905,46.10588,104.5136,45.08024,107.24976,45.42108z"></path>
  <linearGradient id="a" x1="-11619.626" x2="-11620.226" y1="85.857" y2="120.249" gradientTransform="translate(11732.364)" gradientUnits="userSpaceOnUse">
    <stop offset="0" stop-color="#fab5b3"></stop>
    <stop offset="1" stop-color="#fed9d9"></stop>
  </linearGradient>
  <path fill="url(#a)" d="M129.63719,103.05329c0,9.501-7.70397,17.19867-17.19851,17.19867
				c-9.50085,0-17.19867-7.69767-17.19867-17.19867c0-9.49438,7.69781-17.19836,17.19867-17.19836
				C121.93322,85.85493,129.63719,93.55891,129.63719,103.05329z"></path>
  <path fill="#162B4E" d="M98.90714,92.85413c1.21477-1.20489,2.44067-2.39703,3.73282-3.60609
				c1.09284-0.94865,2.36105-1.72278,3.73114-2.31095c1.38234-0.5547,2.86489-0.90656,4.38864-1.02054
				c0.76048-0.05839,1.53265-0.07829,2.30984-0.04663c0.39026,0.0071,0.77773,0.04816,1.17078,0.08267l0.99096,0.09026
				c1.30328,0.13319,2.56816,0.42506,3.79016,0.89124c2.43788,0.96083,4.81898,2.15534,6.98184,4.24918l-0.12971,0.53625
				c-2.88215,0.86974-5.54606,0.84016-8.15318,0.57704c-1.29994-0.14586-2.55758-0.46604-3.77736-0.94489l-0.90077-0.36577
				c-0.24329-0.09673-0.48657-0.21148-0.73988-0.289c-0.50216-0.18671-1.03049-0.29221-1.56606-0.36597
				c-1.07336-0.13187-2.18458-0.09492-3.2841,0.1128c-1.10397,0.18845-2.2113,0.53577-3.24624,1.0758
				c-1.72083,0.92527-3.50401,1.91122-5.29887,2.86022C98.38772,94.05737,97.92676,93.71398,98.90714,92.85413z"></path>
  <path fill="#E0EEFE" d="M119.59595,101.0496c0,0-3.32632,3.5478-7.42491,3.5478c-4.10538,0-7.43166-3.5478-7.43166-3.5478
					s3.32628-3.5478,7.43166-3.5478C116.26962,97.5018,119.59595,101.0496,119.59595,101.0496z"></path>
  <path fill="#162B4E" d="M119.59579,101.04935c0,0-0.16324,0.17151-0.45982,0.44358
					c-1.04747-0.95225-3.77091-3.10703-6.96503-3.10703c-3.19956,0-5.92569,2.15479-6.97047,3.10703
					c-0.29655-0.27207-0.45979-0.44358-0.45979-0.44358s3.32471-3.54769,7.43026-3.54769
					C116.26833,97.50166,119.59579,101.04935,119.59579,101.04935z"></path>
  <circle cx="112.168" cy="100.755" r="3.252" fill="#162B4E"></circle>
  <defs>
    <filter id="b" width="3.15" height="3.148" x="110.974" y="98.468" filterUnits="userSpaceOnUse">
      <feFlood flood-color="#fff" flood-opacity="1" result="back"></feFlood>
      <feBlend in="SourceGraphic" in2="back"></feBlend>
    </filter>
  </defs>
  <mask id="c" width="3.15" height="3.148" x="110.974" y="98.468" maskUnits="userSpaceOnUse"></mask>
  <g mask="url(#c)">
    <circle cx="112.549" cy="100.042" r="1.575" fill="#081832"></circle>
  </g>
  <path fill="#081832" d="M115.03271,100.65668c0,1.58318-1.2843,2.86437-2.86744,2.86437
					c-1.58018,0-2.86152-1.2812-2.86152-2.86437c0-0.13914,0.00889-0.27525,0.02962-0.40847
					c0.19824,1.38797,1.39079,2.45315,2.8319,2.45315c1.44407,0,2.63958-1.06518,2.83781-2.45315
					C115.02382,100.38142,115.03271,100.51753,115.03271,100.65668z"></path>
  <circle cx="112.908" cy="99.659" r=".714" fill="#FFF"></circle>
  <path fill="#FFBBBA" d="M175.1804 156.01576c-2.33768 6.90941-8.08415 16.84019-22.05118 19.09778 0 0-18.72144 21.91394-42.2546.71823 0 0-11.89157-2.896-17.94592-18.99512 5.87174 11.20784 14.4575 14.5941 16.81744 15.34665 7.12603 6.28226 14.55994 9.46336 22.13078 9.46336 11.85762 0 20.19229-7.78735 22.40414-10.11327C165.65991 169.43547 171.83952 162.46907 175.1804 156.01576zM179.10251 77.97143c-1.58499-22.19905-16.29301-27.94547-21.10475-29.23386-.90077-.23946-1.83551-.28504-2.77025-.14823-23.30547 3.28368-40.45305 1.98388-47.97825 1.04893-2.73629-.34203-5.47257.68414-7.27412 2.7706-7.8559 9.06433-10.74027 15.24408-11.48182 19.33723-.82061-3.48891.22826-10.55795 11.48182-23.55579 1.80155-2.08652 4.53783-3.1127 7.27412-2.7706 7.5252.93488 24.67278 2.24609 47.97825-1.049.93474-.1254 1.86948-.09116 2.77025.15964 5.00548 1.33397 20.72841 7.49089 21.23001 31.99304C179.22777 76.5234 179.15929 77.0479 179.10251 77.97143z"></path>
  <path fill="#FFBBBA" d="M151.62251 154.17006c0 3.93352-7.21733 7.12604-16.1221 7.12604-8.90475 0-16.1104-3.19252-16.1104-7.12604 0-3.93358 7.20564-7.12604 16.1104-7.12604C144.40518 147.04402 151.62251 150.23648 151.62251 154.17006zM99.13318 69.30936c6.03564-2.8782 12.25647-5.37419 18.59058-7.54369 3.14502-1.07137 6.38574-2.23718 9.86646-2.24677 1.72205-.02092 3.49866.41585 5.03125 1.14351 1.5448.70319 2.98914 1.39574 4.58203 1.48772 1.5885.13773 3.2218-.10059 4.86902-.35175 1.65344-.25989 3.34521-.44173 5.02673-.53616 3.36951-.18828 6.76086.01775 10.07654.6138 6.6405 1.14459 13.00183 3.80858 18.41309 7.74068-2.82446-1.78767-5.80713-3.30777-8.92517-4.46451-3.10144-1.19641-6.33533-2.02826-9.6123-2.51707-3.27759-.46669-6.59766-.6958-9.90027-.46423-1.65344.10876-3.28613.29813-4.93127.57173-1.64587.26286-3.34827.54123-5.10144.40273-.87012-.07663-1.75293-.27962-2.56348-.59082-.81348-.30544-1.57104-.68262-2.32239-1.02141-1.48328-.71359-3.02405-1.10109-4.65173-1.10587-3.25305-.04117-6.43542 1.10202-9.61731 2.06564-3.18237.99956-6.34045 2.07927-9.474 3.22932C105.34387 66.84177 102.23706 68.06768 99.13318 69.30936z"></path>
  <path fill="#FFBBBA" d="M174.20764,85.12254c-0.17529-7.86491-6.4342-14.99118-14.12134-15.96304
			c-1.89722-0.32249-3.83228-0.43828-5.77673-0.55547c-1.50304-0.08459-16.70294-0.94012-17.53784-0.98712l-11.68457-0.74196
			c-3.8866-0.23381-7.7771-0.33957-11.62732,0.0349c-3.83923,0.37889-7.6488,1.38341-11.00012,3.32213
			c-3.36682,1.90451-6.22583,4.69478-8.31714,7.98892c1.89929-3.41516,4.71948-6.32635,8.06616-8.41002
			c3.37366-2.06938,7.26147-3.18663,11.16406-3.66531c3.91614-0.50381,7.86243-0.36635,11.76392-0.1794l11.69495,0.6537
			l11.68677,0.74821l5.84387,0.3744c1.94946,0.12115,3.9176,0.282,5.86267,0.66397c1.94336,0.36977,3.86267,1.00797,5.59253,2.00366
			c1.73669,0.97806,3.25232,2.31056,4.51819,3.82811C172.85474,77.28283,174.31165,81.20866,174.20764,85.12254z"></path>
  <path fill="#FFBBBA" d="M98.76074 83.87295c.76624-1.33943 1.83044-2.5027 3.02283-3.50714 1.21753-.97746 2.57715-1.77226 4.00427-2.41286 2.86926-1.28555 6.00977-1.78998 9.09204-2.00871 3.0968-.19597 6.17517-.10863 9.23328-.08684 1.52991.01207 3.05737-.01596 4.58081-.12094 1.52734-.07486 3.04395-.27234 4.5592-.54288-1.46082.49084-2.98218.78905-4.50891 1.0305-1.53198.20576-3.0741.32077-4.61377.40234-3.08069.15933-6.1499.09996-9.18384.31499-4.54223.28705-9.12279 1.19131-12.86938 3.81332C100.82056 81.60288 99.71216 82.66259 98.76074 83.87295zM140.7179 74.85744c3.46436-.7086 7.00159-1.16541 10.57629-1.09488 3.56604.05153 7.17725.73837 10.46704 2.24556 3.26355 1.50703 6.24646 3.8959 8.01245 7.09015.87927 1.58313 1.49536 3.30661 1.76929 5.08662.2334 1.78233.14209 3.61093-.40564 5.30011.15845-.87177.23352-1.74876.23438-2.62288-.02112-.87524-.13037-1.74211-.31128-2.59093-.36047-1.69949-1.03296-3.31927-1.94824-4.78026-1.82581-2.93393-4.6355-5.14571-7.76953-6.57526-3.13892-1.46365-6.59778-2.1566-10.08093-2.38811C147.76843 74.29948 144.24072 74.55637 140.7179 74.85744zM143.15417 79.53326c-1.39746.41705-2.65149 1.22119-3.47375 2.33252-.83105 1.10832-1.16565 2.51253-1.11963 3.90685-.03406.3479.01831.69862.05957 1.04919.04749.34975.06213.70329.13525 1.05098.17444.69031.27991 1.39903.50684 2.08238.39417 1.38698.95959 2.71829 1.45544 4.10162-.38782-.61909-.7345-1.26411-1.10547-1.90076-.3562-.64325-.59338-1.34392-.89722-2.01807-.31311-.67252-.43274-1.41743-.65625-2.12709-.09216-.36111-.10962-.74123-.16724-1.11147-.04919-.37254-.11023-.74384-.08044-1.1263-.03503-1.49783.37292-3.11426 1.42078-4.26622.51025-.57481 1.12061-1.04422 1.78979-1.38454C141.70508 79.81562 142.41919 79.57858 143.15417 79.53326zM124.74597 79.53326c.63342.02719 1.25024.2262 1.84338.48328.57971.28897 1.11011.69104 1.55542 1.1857.91492.99203 1.27026 2.39473 1.24109 3.68793.02527.3308-.02783.651-.07056.97238-.05029.31931-.06543.64749-.14587.95847-.19531.6106-.29907 1.25267-.57397 1.82925-.26587.57835-.47424 1.1794-.78516 1.73001-.32666.54349-.62915 1.09538-.97278 1.62132.40601-1.19763.88135-2.34338 1.21082-3.53413.18872-.58742.2782-1.1933.42456-1.78455.06128-.29755.07373-.59917.11365-.89798.03503-.29941.07935-.59904.04968-.89526.04041-1.1897-.2417-2.38017-.93982-3.32857C127.00415 80.61051 125.94092 79.91268 124.74597 79.53326zM131.56091 99.02523c.49609 2.00845.76208 4.05386.82642 6.12198.04138 2.05992-.12427 4.17168-.82642 6.1292C131.86908 105.80732 131.40955 102.49397 131.56091 99.02523zM137.51123 98.87423c.15373 3.52286-.31104 6.72539 0 12.25116-.70215-1.95752-.8678-4.06926-.82642-6.12918C136.74915 102.92809 137.01514 100.88267 137.51123 98.87423zM166.86414 136.41814c1.27026 3.28229 1.94885 6.78551 2.21729 10.32004.2627 3.53894.02197 7.14513-.82629 10.64948-.46289 1.74109-1.06799 3.45251-1.85815 5.08295-.80078 1.62404-1.8075 3.15477-2.99219 4.51944-2.3407 2.7699-5.47327 4.76741-8.79187 5.88521 2.96631-1.87753 5.61182-4.10623 7.56946-6.85561 1.98157-2.72084 3.3147-5.85239 4.1344-9.11977.83118-3.27287 1.15112-6.68449 1.21069-10.11383C167.55505 143.35199 167.32886 139.89346 166.86414 136.41814zM97.71423 136.41814c-.46472 3.47533-.69092 6.93385-.66333 10.3679.05957 3.42934.37939 6.84096 1.21057 10.11383.8197 3.26738 2.15283 6.39893 4.1344 9.11977 1.95776 2.74937 4.60327 4.97807 7.56946 6.85561-3.31848-1.1178-6.45117-3.11531-8.79175-5.88521-1.18481-1.36467-2.19153-2.8954-2.99231-4.51944-.79016-1.63043-1.39526-3.34186-1.85815-5.08295-.84827-3.50435-1.08887-7.11053-.82617-10.64948C95.76538 143.20364 96.44385 139.70042 97.71423 136.41814zM146.28003 124.99181c1.85767.40651 3.59741 1.20789 5.22485 2.17975 1.6261.98026 3.14063 2.16978 4.47461 3.55216 1.34668 1.37128 2.43726 3.00365 3.27771 4.73375.84656 1.73463 1.26172 3.66782 1.28711 5.54887-.84387-1.70967-1.61853-3.31331-2.64648-4.78214-1.02222-1.45911-2.12268-2.841-3.36353-4.11888-1.23755-1.27641-2.5459-2.49895-3.93103-3.66718C149.21252 127.27528 147.77808 126.14466 146.28003 124.99181zM125.62207 124.99181c-1.49792 1.15285-2.93237 2.28346-4.32324 3.44634-1.38501 1.16823-2.69348 2.39076-3.93091 3.66718-1.24097 1.27788-2.34131 2.65977-3.36365 4.11888-1.02795 1.46883-1.80249 3.07246-2.64648 4.78214.02551-1.88106.44055-3.81424 1.28711-5.54887.84045-1.7301 1.93103-3.36247 3.27771-4.73375 1.33398-1.38239 2.84851-2.5719 4.47461-3.55216C122.02478 126.1997 123.76453 125.39832 125.62207 124.99181z"></path>
  <path fill="#E0EEFE" d="M160.51053,146.93614c0.79535,1.74294,0.14372,3.81293-1.50719,4.78496
			c-6.41963,3.77977-14.59357,5.00723-23.75514,5.00722c-9.16385,0-16.94114-1.22623-23.26139-5.00922
			c-1.63532-0.97882-2.27581-3.03741-1.48527-4.77161c1.92381-4.2202,4.99876-8.55011,10.4297-9.12021
			c3.76519-0.39525,10.79275,4.0976,14.57862,4.0975c3.78529-0.00008,10.81157-4.49261,14.57619-4.0975
			C155.51213,138.39676,158.58636,142.71951,160.51053,146.93614z"></path>
  <path fill="#162B4E" d="M160.6433,149.6992c-0.04565-0.11398-0.09131-0.22804-0.13696-0.34204
			c-1.91566-4.20721-4.99379-8.53983-10.42126-9.0985c-3.76231-0.39909-10.78592,4.09315-14.57106,4.09315
			c-3.78571,0-10.82044-4.49225-14.58276-4.09315c-5.42747,0.57008-8.50559,4.89128-10.4324,9.10991
			c-0.04565,0.10258-0.0913,0.21664-0.12582,0.31921c-0.30787-0.86653-0.27335-1.84706,0.12582-2.73636
			c1.92681-4.21863,5.00493-8.55124,10.4324-9.12132c3.76232-0.39909,10.79706,4.09315,14.58276,4.09315
			c3.78514,0,10.80875-4.49225,14.57106-4.09315c5.42747,0.57008,8.5056,4.8913,10.42126,9.10991
			C160.91664,147.84073,160.93947,148.82126,160.6433,149.6992z" opacity=".1"></path>
  <linearGradient id="d" x1="-49.832" x2="-50.431" y1="85.857" y2="120.249" gradientTransform="matrix(-1 0 0 1 106.899 0)" gradientUnits="userSpaceOnUse">
    <stop offset="0" stop-color="#fab5b3"></stop>
    <stop offset="1" stop-color="#fed9d9"></stop>
  </linearGradient>
  <path fill="url(#d)" d="M139.83179,103.05329c0,9.501,7.70398,17.19867,17.19852,17.19867
				c9.50085,0,17.19867-7.69767,17.19867-17.19867c0-9.49438-7.69781-17.19836-17.19867-17.19836
				C147.53577,85.85493,139.83179,93.55891,139.83179,103.05329z"></path>
  <path fill="#162B4E" d="M170.56184,92.85413c-1.21477-1.20489-2.44067-2.39703-3.73282-3.60609
				c-1.09285-0.94865-2.36105-1.72278-3.73114-2.31095c-1.38234-0.5547-2.8649-0.90656-4.38864-1.02054
				c-0.76048-0.05839-1.53265-0.07829-2.30984-0.04663c-0.39026,0.0071-0.77773,0.04816-1.17078,0.08267l-0.99097,0.09026
				c-1.30328,0.13319-2.56816,0.42506-3.79016,0.89124c-2.43788,0.96083-4.81897,2.15534-6.98184,4.24918l0.12971,0.53625
				c2.88216,0.86974,5.54607,0.84016,8.15318,0.57704c1.29994-0.14586,2.55759-0.46604,3.77736-0.94489l0.90077-0.36577
				c0.24329-0.09673,0.48657-0.21148,0.73988-0.289c0.50217-0.18671,1.03049-0.29221,1.56606-0.36597
				c1.07336-0.13187,2.18459-0.09492,3.2841,0.1128c1.10397,0.18845,2.2113,0.53577,3.24625,1.0758
				c1.72083,0.92527,3.504,1.91122,5.29887,2.86022C171.08127,94.05737,171.54222,93.71398,170.56184,92.85413z"></path>
  <path fill="#E0EEFE" d="M149.87303,101.0496c0,0,3.32632,3.5478,7.42491,3.5478c4.10538,0,7.43166-3.5478,7.43166-3.5478
					s-3.32628-3.5478-7.43166-3.5478C153.19936,97.5018,149.87303,101.0496,149.87303,101.0496z"></path>
  <path fill="#162B4E" d="M149.87318,101.04935c0,0,0.16324,0.17151,0.45982,0.44358
					c1.04747-0.95225,3.7709-3.10703,6.96503-3.10703c3.19955,0,5.92569,2.15479,6.97047,3.10703
					c0.29654-0.27207,0.45978-0.44358,0.45978-0.44358s-3.32471-3.54769-7.43025-3.54769
					C153.20065,97.50166,149.87318,101.04935,149.87318,101.04935z"></path>
  <circle cx="157.301" cy="100.755" r="3.252" fill="#162B4E"></circle>
  <defs>
    <filter id="e" width="3.15" height="3.148" x="155.345" y="98.468" filterUnits="userSpaceOnUse">
      <feFlood flood-color="#fff" flood-opacity="1" result="back"></feFlood>
      <feBlend in="SourceGraphic" in2="back"></feBlend>
    </filter>
  </defs>
  <mask id="f" width="3.15" height="3.148" x="155.345" y="98.468" maskUnits="userSpaceOnUse"></mask>
  <g mask="url(#f)">
    <circle cx="156.92" cy="100.042" r="1.575" fill="#081832"></circle>
  </g>
  <path fill="#081832" d="M154.43628,100.65668c0,1.58318,1.2843,2.86437,2.86743,2.86437
					c1.58018,0,2.86153-1.2812,2.86153-2.86437c0-0.13914-0.0089-0.27525-0.02962-0.40847
					c-0.19824,1.38797-1.39079,2.45315-2.83191,2.45315c-1.44406,0-2.63957-1.06518-2.83781-2.45315
					C154.44516,100.38142,154.43628,100.51753,154.43628,100.65668z"></path>
  <circle cx="156.561" cy="99.659" r=".714" fill="#FFF"></circle>
  <path fill="#FFBBBA" d="M145.271,106.06037c1.59131,1.87474,3.15564,3.79457,5.11145,5.22794
			c1.93774,1.4456,4.13818,2.53891,6.47522,3.13657c2.31848,0.65459,4.77844,0.81735,7.16431,0.50507
			c1.18164-0.16542,2.35547-0.53314,3.29578-1.26299c0.94653-0.70868,1.65747-1.8037,1.7301-3.04407
			c0.10168,1.2506-0.56299,2.47806-1.49475,3.32652c-0.96558,0.84825-2.20361,1.30486-3.43347,1.54913
			c-2.47583,0.44728-5.02954,0.2724-7.45679-0.35033c-2.41052-0.68105-4.70679-1.81299-6.63562-3.40869
			C148.07373,110.15202,146.61292,108.1151,145.271,106.06037z"></path>
  <path fill="#FFBBBA" d="M150.15808,108.37861c1.18848,0.82024,2.4176,1.54655,3.70715,2.1335
			c1.29224,0.57826,2.62366,1.0578,3.99536,1.38394c1.36755,0.34296,2.7699,0.53255,4.18311,0.61552
			c1.41479,0.07513,2.84021-0.002,4.27332-0.17973c-1.36536,0.48242-2.8197,0.71207-4.27942,0.75662
			c-2.89072,0.104-6.00552-0.6869-8.43201-2.06418C152.33118,110.3113,151.14734,109.436,150.15808,108.37861z"></path>
  <path fill="#FFBBBA" d="M150.52209 107.07542c1.34338.80684 2.72437 1.51369 4.17126 2.03938 1.44714.51779 2.93298.91751 4.45056 1.11423 1.51147.20369 3.06384.30298 4.53284.01106.73511-.1459 1.44067-.42665 2.05823-.86014.63281-.41328 1.15381-.99821 1.49609-1.705-.1825.76973-.67139 1.45445-1.27026 1.99518-.6156.52777-1.36438.90131-2.14307 1.12938-1.57751.45473-3.20654.36542-4.77686.17194C155.89172 110.52903 152.84888 109.18594 150.52209 107.07542zM167.18835 102.30369c2.18593 3.74514 5.62198 5.76669 9.9613 5.86531-2.02869.55386-4.31274.16974-6.16675-.91832C169.13281 106.1558 167.68982 104.34559 167.18835 102.30369z"></path>
  <path fill="#FFBBBA" d="M167.54041 106.3707c1.67078 1.60678 3.62292 2.78763 5.76868 3.41873 1.06763.31671 2.1759.50725 3.29675.53442 1.11414.02522 2.26807-.02492 3.26294-.646-.81531.8678-2.0946 1.16978-3.2511 1.23112-1.1842.0937-2.38049-.07541-3.52246-.40115C170.82385 109.82896 168.75403 108.36555 167.54041 106.3707zM125.98535 106.06037c-1.3418 2.05473-2.80273 4.09164-4.7561 5.67915-1.92896 1.5957-4.2251 2.72765-6.63562 3.40869-2.42737.62273-4.98096.79761-7.45679.35033-1.22986-.24428-2.46802-.70088-3.43359-1.54913-.93164-.84846-1.59644-2.07593-1.49475-3.32652.07263 1.24037.78369 2.33539 1.73022 3.04407.94031.72984 2.11414 1.09756 3.29565 1.26299 2.38599.31229 4.84595.14952 7.16443-.50507 2.33704-.59766 4.53748-1.69096 6.47522-3.13657C122.82983 109.85494 124.39404 107.93511 125.98535 106.06037z"></path>
  <path fill="#FFBBBA" d="M121.09839,108.37861c-0.98926,1.05739-2.1731,1.93269-3.44751,2.64568
			c-2.4272,1.37769-5.54213,2.16815-8.43201,2.06418c-1.45972-0.04456-2.91406-0.2742-4.27954-0.75662
			c1.43323,0.17773,2.85864,0.25487,4.27344,0.17973c1.41309-0.08298,2.81555-0.27257,4.18298-0.61552
			c1.3717-0.32614,2.70325-0.80568,3.99536-1.38394C118.68066,109.92516,119.90979,109.19884,121.09839,108.37861z"></path>
  <path fill="#FFBBBA" d="M120.73425 107.07542c-2.32678 2.11052-5.36951 3.45361-8.51868 3.89603-1.57031.19348-3.19934.28279-4.77686-.17194-.77869-.22807-1.52759-.60161-2.14307-1.12938-.59888-.54073-1.08777-1.22545-1.27026-1.99518.34216.70679.86328 1.29172 1.49609 1.705.61743.43349 1.323.71423 2.05823.86014 1.46887.29192 3.02136.19263 4.53284-.01106 1.51758-.19672 3.00342-.59644 4.45044-1.11423C118.00989 108.5891 119.39087 107.88226 120.73425 107.07542zM104.06812 102.30369c-.50146 2.0419-1.94446 3.85211-3.79456 4.94699-1.854 1.08806-4.13818 1.47218-6.16675.91832C98.44199 108.07047 101.88028 106.05211 104.06812 102.30369z"></path>
  <path fill="#FFBBBA" d="M103.71606,106.3707c-1.21362,1.99484-3.28345,3.45825-5.55493,4.13713
			c-1.14185,0.32574-2.33813,0.49486-3.52234,0.40115c-1.15662-0.06134-2.43579-0.36333-3.2511-1.23112
			c0.99475,0.62108,2.1488,0.67122,3.26294,0.646c1.12085-0.02718,2.229-0.21771,3.29675-0.53442
			C100.09302,109.15833,102.04529,107.97749,103.71606,106.3707z"></path>
  <linearGradient id="g" x1="127.657" x2="126.858" y1="136.362" y2="123.674" gradientTransform="rotate(-.49 610.335 -841.63)" gradientUnits="userSpaceOnUse">
    <stop offset="0" stop-color="#fab5b3"></stop>
    <stop offset="1" stop-color="#fed9d9"></stop>
  </linearGradient>
  <path fill="url(#g)" d="M145.36378,132.84645c0.04662,5.44423-4.32712,9.8934-9.77135,9.94
			c-5.44415,0.04662-9.89341-4.32704-9.94002-9.77127c-0.00851-0.99484,0.13618-1.96484,0.40887-2.88489
			c1.25854,4.03114,5.04487,6.93117,9.48182,6.89319c4.43701-0.03798,8.17307-3.00241,9.36249-7.0545
			C145.19398,130.88422,145.35527,131.85161,145.36378,132.84645z"></path>
  <polygon fill="#E0EEFE" points="182.939 101.022 181.702 121.512 198.956 98.273"></polygon>
  <polygon fill="#E0EEFE" points="86.702 101.022 87.939 121.512 70.685 98.273"></polygon>
</svg>
