<svg xmlns="http://www.w3.org/2000/svg" width="64" height="64" viewBox="0 0 64 64" id="spiderman">
  <path fill="#e52315" d="M51.09,42.66a29.08,29.08,0,0,0-4.86-2.52,24.8,24.8,0,0,0-9.58-1.86H27.33a24.82,24.82,0,0,0-9.59,1.86,29.08,29.08,0,0,0-4.86,2.52,2.17,2.17,0,0,1-.68.3c-5.24,1.26-7.83,1.79-9,8.71a71,71,0,0,0,28.64,6.09h.21a71.15,71.15,0,0,0,28.64-6.09c-1.13-6.92-3.72-7.45-9-8.71A2.25,2.25,0,0,1,51.09,42.66Z"></path>
  <path fill="#c42222" d="M50.1 52s3.46-7.11.86-9.31L55.41 44a7 7 0 0 1 4.65 5.2V50S51.47 48.3 50.1 52zM13.75 52s-3.47-7.11-.87-9.31L8.44 44a7 7 0 0 0-4.66 5.2V50S12.37 48.3 13.75 52z"></path>
  <path fill="#333" d="M33,50.07,32.9,50a2.39,2.39,0,0,0,.7-1.69v-.5a1.35,1.35,0,0,0-.6-1.18l-.26-.16a1.36,1.36,0,0,0-1.45,0l-.26.16a1.36,1.36,0,0,0-.63,1.15v.5A2.38,2.38,0,0,0,31.14,50h0a1.86,1.86,0,0,0-1.07,1.64v1.69A1.87,1.87,0,0,0,31,55l.77.46a.59.59,0,0,0,.26.07.55.55,0,0,0,.25-.07L33,55a1.86,1.86,0,0,0,.9-1.59V51.71A1.89,1.89,0,0,0,33,50.07Z"></path>
  <polyline fill="none" stroke="#333" stroke-linecap="round" stroke-linejoin="round" points="28.93 51.13 31.98 52.26 35.15 51.13"></polyline>
  <polyline fill="none" stroke="#333" stroke-linecap="round" stroke-linejoin="round" points="35.09 54.25 32.04 53.12 28.88 54.25"></polyline>
  <path fill="#4f6fb7" d="M54.1,49.83h6.36c.1.43.19.89.27,1.4a81.7,81.7,0,0,1-12.12,4.42C49,52.48,50.91,49.83,54.1,49.83Z"></path>
  <path fill="none" stroke="#333" stroke-linecap="round" stroke-linejoin="round" d="M54.1,49.83h6.36c.1.43.19,1.14.27,1.65a55.86,55.86,0,0,1-12.12,4.17C49,52.48,50.91,49.83,54.1,49.83Z"></path>
  <path fill="#4f6fb7" d="M9.63,49.83H3.27c-.1.43-.18.89-.27,1.4a81.7,81.7,0,0,0,12.12,4.42C14.69,52.48,12.83,49.83,9.63,49.83Z"></path>
  <path fill="none" stroke="#333" stroke-linecap="round" stroke-linejoin="round" d="M9.63,49.83H3.27c-.1.43-.18,1.14-.27,1.65a56.4,56.4,0,0,0,12.12,4.17C14.69,52.48,12.83,49.83,9.63,49.83Z"></path>
  <path fill="none" stroke="#333" stroke-linecap="round" stroke-linejoin="round" stroke-width="1.5" d="M51.09,42.66a29.08,29.08,0,0,0-4.86-2.52,24.8,24.8,0,0,0-9.58-1.86H27.33a26.87,26.87,0,0,0-3.8.27,23.36,23.36,0,0,0-5.79,1.59,29.08,29.08,0,0,0-4.86,2.52,2.17,2.17,0,0,1-.68.3c-5.24,1.26-7.83,1.79-9,8.71a71,71,0,0,0,28.64,6.09h.21a71.15,71.15,0,0,0,28.64-6.09c-1.13-6.92-3.72-7.45-9-8.71A2.25,2.25,0,0,1,51.09,42.66Z"></path>
  <path fill="#ed534f" d="M12.2,46a1,1,0,0,1-1.1-.9A1,1,0,0,1,12,44a1.73,1.73,0,0,0,.37-.16,30.46,30.46,0,0,1,5-2.61,24.07,24.07,0,0,1,6-1.65,25.93,25.93,0,0,1,3.94-.29,1,1,0,1,1,0,2,23.51,23.51,0,0,0-3.65.27,22.71,22.71,0,0,0-5.55,1.51,29.92,29.92,0,0,0-4.7,2.44,3.29,3.29,0,0,1-1,.43Z"></path>
  <path fill="none" stroke="#333" stroke-miterlimit="10" stroke-width="1.5" d="M28,30.21a1,1,0,0,1,.75-1A13.8,13.8,0,0,1,32,28.67a13.89,13.89,0,0,1,3.26.54,1,1,0,0,1,.75,1v1.51a1,1,0,0,1-1,1h-.6a.41.41,0,0,1-.41-.37.61.61,0,0,0-.58-.63H30.56a.61.61,0,0,0-.58.63.41.41,0,0,1-.4.37H29a1,1,0,0,1-1-1Z"></path>
  <rect width="16" height="13.72" x="23.99" y="30.81" fill="#e52315"></rect>
  <path fill="#c42222" d="M24,30.81V35.9a16,16,0,0,0,5.27,4.71,8.3,8.3,0,0,0,3.39.46A8.26,8.26,0,0,0,36,40.61a15.74,15.74,0,0,0,4-3.07V30.81Z"></path>
  <line x1="23.99" x2="23.99" y1="32.72" y2="40.78" fill="none" stroke="#333" stroke-linecap="round" stroke-linejoin="round" stroke-width="1.5"></line>
  <line x1="39.99" x2="39.99" y1="32.72" y2="40.78" fill="none" stroke="#333" stroke-linecap="round" stroke-linejoin="round" stroke-width="1.5"></line>
  <path fill="#e52315" d="M32.07,37.07a8.3,8.3,0,0,1-3.39-.46c-3.34-1.76-6.61-5.63-6.61-7.94v-2c-.35-2.67-.83-4.78-1-7.59v-3c0-5,3.06-10.07,11-10.07s11,5.1,11,10.07v3A14.83,14.83,0,0,1,42.73,23c-.23,1.61-.23,1.61-.66,3.66v2c0,2.32-3.27,6.19-6.61,7.94A8.3,8.3,0,0,1,32.07,37.07Z"></path>
  <path fill="#c42222" d="M43.15,19.42v-3c0-5-3.06-10.07-11-10.07a9.93,9.93,0,0,0-1.54.07,60.42,60.42,0,0,0-3.46,20.86,77.44,77.44,0,0,0,.5,9c.35.23.72.46,1.1.66a8.3,8.3,0,0,0,3.39.46,8.3,8.3,0,0,0,3.39-.46c3.35-1.74,6.62-5.62,6.62-7.93V27C42.4,25.08,43.07,21.13,43.15,19.42Z"></path>
  <path fill="none" stroke="#333" stroke-linejoin="round" stroke-width="1.5" d="M38.82,7.85A12,12,0,0,0,32.07,6H32a12.12,12.12,0,0,0-6.76,1.8,9.71,9.71,0,0,0-4.15,8.28c0,4,1,8,1.45,12a9.63,9.63,0,0,0,1.12,3.77,11.47,11.47,0,0,0,2.42,2.87c.85.73,1.56,1.8,2.62,2.18a8.26,8.26,0,0,0,3.34.46,8.28,8.28,0,0,0,3.35-.46c1.06-.38,1.67-1.37,2.52-2.1a11.47,11.47,0,0,0,2.42-2.87,9.31,9.31,0,0,0,1.12-3.77c.42-4,1.55-8,1.55-12A9.71,9.71,0,0,0,38.82,7.85Z"></path>
  <line x1="31.34" x2="32.63" y1="34.44" y2="34.44" fill="none" stroke="#aa1b1b" stroke-linecap="round" stroke-linejoin="round"></line>
  <path fill="none" stroke="#aa1b1b" stroke-linecap="round" stroke-linejoin="round" d="M30.6,27.49a2.71,2.71,0,0,0,2.75,0"></path>
  <path fill="#fff" d="M38.51,28.65l-4.78-3.46,6.16-10.73a8.72,8.72,0,0,1,2.69,6.62C42.58,24.63,40.86,27.62,38.51,28.65Z"></path>
  <path fill="#d8e6ea" d="M38.51,28.65l-4.78-3.46h.32c1.61,1.4,8.48-4.38,8.48-4.15A7.49,7.49,0,0,1,38.51,28.65Z"></path>
  <path fill="none" stroke="#333" stroke-linecap="round" stroke-linejoin="round" stroke-width="1.5" d="M38.51,28.65l-4.78-3.46,6.16-10.73a8.72,8.72,0,0,1,2.69,6.62C42.58,24.63,40.86,27.62,38.51,28.65Z"></path>
  <g>
    <path fill="#fff" d="M25.46,28.65l4.78-3.46L24.08,14.46a8.72,8.72,0,0,0-2.69,6.62C21.39,24.63,23.11,27.62,25.46,28.65Z"></path>
    <path fill="#d8e6ea" d="M25.46,28.65l4.78-3.46h-.32c-1.61,1.4-8.48-4.38-8.48-4.15A7.49,7.49,0,0,0,25.46,28.65Z"></path>
    <path fill="none" stroke="#333" stroke-linecap="round" stroke-linejoin="round" stroke-width="1.5" d="M25.46,28.65l4.78-3.46L24.08,14.46a8.72,8.72,0,0,0-2.69,6.62C21.39,24.63,23.11,27.62,25.46,28.65Z"></path>
  </g>
  <path fill="#333" d="M20.87 39.39L26.72 50.1a.74.74 0 0 1-.3 1 .76.76 0 0 1-1-.3h0L19.82 40a.6.6 0 0 1 .29-.8.59.59 0 0 1 .77.24zM44.19 40l-5.6 10.84a.79.79 0 0 1-1.06.34h0a.79.79 0 0 1-.34-1.07h0L43 39.36a.65.65 0 0 1 .91-.2.66.66 0 0 1 .25.82zM10.31 43.83L25.16 54.74a.78.78 0 0 1 .17 1.1.79.79 0 0 1-1.1.17h0L9.63 44.73a.56.56 0 0 1-.11-.79h0A.58.58 0 0 1 10.31 43.83zM54.34 44.75L39.76 56a.82.82 0 0 1-1.14-.14h0a.81.81 0 0 1 .14-1.15h0l14.88-10.9a.58.58 0 0 1 .82.16A.6.6 0 0 1 54.34 44.75z"></path>
</svg>
